<?xml version="1.0" encoding="utf-8"?>
<!-- Generator: Adobe Illustrator 24.1.1, SVG Export Plug-In . SVG Version: 6.00 Build 0)  -->
<svg version="1.1" id="Layer_1" xmlns="http://www.w3.org/2000/svg" xmlns:xlink="http://www.w3.org/1999/xlink" x="0px" y="0px"
	 viewBox="0 0 100 100" style="enable-background:new 0 0 100 100;" xml:space="preserve">
<style type="text/css">
	.st0{fill:#EEBBC3;}
	.st1{fill:#121629;}
</style>
<g>
	<g>
		<path class="st0" d="M50,87c-1.1,0-2.2,0-3.3-0.1c-17.9-1.6-32.3-16.3-33.6-34.2c-0.7-10.4,2.8-20.3,9.8-27.9
			C29.9,17.3,39.8,13,50,13c7,0,13.8,2,19.8,5.7h0l0.9,0.6c1.1,0.7,2.1,1.5,3.1,2.3c0.1,0.1,0.2,0.1,0.2,0.2
			c1.4-1.3,3.2-2.1,5.1-2.1c3.4,0,6.3,2.3,7.2,5.5l5.5,20.3c0.6,2.3,0.1,4.6-1.3,6.4c-1.4,1.8-3.6,2.9-5.9,2.9
			c-0.6,0-1.3-0.1-1.9-0.2l-1.5-0.4c1.4,0.5,2.6,1.6,3.4,2.9c0.8,1.5,0.9,3.2,0.4,4.8C79.8,77,65.7,87,50,87z M50,34
			c-8.4,0-15.5,6.8-16,15.1c-0.2,4.4,1.3,8.7,4.4,11.9c3.1,3.2,7.2,5,11.6,5c6.6,0,12.6-4.2,15-10.3c0.9-2.3,3.2-3.9,5.7-3.9
			c0.4,0,0.9,0,1.3,0.1l-9.6-2.6c-2.6-0.7-4.6-2.7-5.2-5.2c-0.7-2.6,0-5.3,1.9-7.2l0.1-0.1c-0.7-0.5-1.4-0.9-2.1-1.2
			C54.8,34.5,52.4,34,50,34z"/>
		<path class="st1" d="M50,16.5c6.9,0,13.4,2.1,18.7,5.7h0c1,0.7,1.9,1.4,2.8,2.1c0.9,0.8,1.8,1.5,2.6,2.4l2.3-2.3
			c0.8-0.8,1.8-1.1,2.8-1.1c1.7,0,3.3,1.1,3.8,2.9l5.5,20.4c0.7,2.6-1.3,4.9-3.8,4.9c-0.3,0-0.7,0-1-0.1l-0.1,0l-14.1-3.8l-6.1-1.6
			c-2.9-0.8-3.9-4.4-1.8-6.5l2.7-2.7c-0.8-0.9-1.7-1.6-2.6-2.3c-1-0.7-2-1.3-3.1-1.9c-2.6-1.2-5.5-2-8.5-2c0,0,0,0,0,0
			c-10.2,0-18.9,8.2-19.5,18.4C29.9,60.2,38.9,69.5,50,69.5c8.3,0,15.4-5.2,18.2-12.6c0.4-1,1.4-1.7,2.4-1.7c0.2,0,0.5,0,0.7,0.1
			l8.5,2.3c1.5,0.4,2.3,1.9,1.8,3.4c-4.5,13.1-17,22.6-31.7,22.6c-1,0-2,0-3-0.1c-16.2-1.4-29.3-14.7-30.4-31
			C15.2,32.9,30.7,16.5,50,16.5 M50,9.5c-11.2,0-22,4.7-29.6,12.9C12.6,30.7,8.8,41.5,9.6,52.9C11,72.5,26.8,88.6,46.4,90.3
			c1.2,0.1,2.4,0.2,3.6,0.2c17.2,0,32.6-11,38.3-27.3c0.6-1.8,0.7-3.7,0.2-5.5c1.9-0.7,3.5-1.9,4.8-3.5c2.1-2.7,2.8-6.1,1.9-9.5
			l-5.5-20.4c-1.3-4.8-5.6-8.1-10.6-8.1c-1.8,0-3.5,0.4-5,1.2c-0.5-0.4-1-0.7-1.5-1.1l-1.8-1.2h-0.1C64.5,11.5,57.4,9.5,50,9.5
			L50,9.5z M50,62.5c-3.5,0-6.7-1.4-9.1-3.9c-2.4-2.5-3.6-5.8-3.4-9.3c0.4-6.5,6-11.8,12.5-11.8c1.4,0,2.8,0.2,4.1,0.7
			c-0.8,2.1-1,4.5-0.4,6.8c1,3.8,4,6.7,7.7,7.7l1,0.3c-0.3,0.5-0.5,1-0.7,1.5C59.9,59.3,55.2,62.5,50,62.5L50,62.5z"/>
	</g>
</g>
</svg>
