<?xml version="1.0" encoding="utf-8"?>
<!-- Generator: Adobe Illustrator 24.1.1, SVG Export Plug-In . SVG Version: 6.00 Build 0)  -->
<svg version="1.1" id="Layer_1" xmlns="http://www.w3.org/2000/svg" xmlns:xlink="http://www.w3.org/1999/xlink" x="0px" y="0px"
	 viewBox="0 0 100 100" style="enable-background:new 0 0 100 100;" xml:space="preserve">
<style type="text/css">
	.st0{fill:#EEBBC3;stroke:#121629;stroke-width:9;stroke-miterlimit:10;}
	.st1{fill:#EEBBC3;stroke:#121629;stroke-width:7;stroke-miterlimit:10;}
</style>
<g>
	<path class="st0" d="M90,55c-13.2,3.9-23.7,18.5-26.4,37.2c-0.2,1.1-1.3,1.1-1.4,0C59.4,73.6,49,58.9,35.8,55c-0.8-0.2-0.8-1.8,0-2
		C49,49.1,59.4,34.4,62.2,15.8c0.2-1.1,1.3-1.1,1.4,0C66.4,34.4,76.8,49.1,90,53C90.8,53.2,90.8,54.8,90,55z"/>
	<path class="st1" d="M41.3,26.7c-7.7,1.9-13.8,9.1-15.4,18.3c-0.1,0.5-0.7,0.5-0.8,0c-1.6-9.2-7.7-16.4-15.4-18.3
		c-0.4-0.1-0.4-0.9,0-1c7.7-1.9,13.8-9.1,15.4-18.3c0.1-0.5,0.7-0.5,0.8,0c1.6,9.2,7.7,16.4,15.4,18.3
		C41.7,25.8,41.7,26.6,41.3,26.7z"/>
</g>
</svg>
