<?xml version="1.0" encoding="utf-8"?>
<!-- Generator: Adobe Illustrator 24.1.1, SVG Export Plug-In . SVG Version: 6.00 Build 0)  -->
<svg version="1.1" id="Layer_1" xmlns="http://www.w3.org/2000/svg" xmlns:xlink="http://www.w3.org/1999/xlink" x="0px" y="0px"
	 viewBox="0 0 100 100" style="enable-background:new 0 0 100 100;" xml:space="preserve">
<style type="text/css">
	.st0{fill:#B8C1EC;stroke:#121629;stroke-width:0.5;stroke-linecap:round;stroke-linejoin:round;stroke-miterlimit:10;}
	.st1{fill:#C1C0E5;stroke:#121629;stroke-width:0.5;stroke-linecap:round;stroke-linejoin:round;stroke-miterlimit:10;}
	.st2{fill:#CABFDE;stroke:#121629;stroke-width:0.5;stroke-linecap:round;stroke-linejoin:round;stroke-miterlimit:10;}
	.st3{fill:#D3BED8;stroke:#121629;stroke-width:0.5;stroke-linecap:round;stroke-linejoin:round;stroke-miterlimit:10;}
	.st4{fill:#DCBDD1;stroke:#121629;stroke-width:0.5;stroke-linecap:round;stroke-linejoin:round;stroke-miterlimit:10;}
	.st5{fill:#EEBBC3;stroke:#121629;stroke-width:0.5;stroke-linecap:round;stroke-linejoin:round;stroke-miterlimit:10;}
	.st6{fill:#E5BCCA;stroke:#121629;stroke-width:0.5;stroke-linecap:round;stroke-linejoin:round;stroke-miterlimit:10;}
</style>
<g>
	<path class="st0" d="M5.6,59.5C30.1,59.5,50,33.6,50,1.6c0,31.9,19.9,57.8,44.4,57.8"/>
	<path class="st1" d="M16.7,62C35.1,62,50,42.6,50,18.6C50,42.6,64.9,62,83.3,62"/>
	<path class="st2" d="M27.8,64.5C40,64.5,50,51.6,50,35.6c0,16,10,28.9,22.2,28.9"/>
	<path class="st3" d="M38.9,67C45,67,50,60.5,50,52.5c0,8,5,14.5,11.1,14.5"/>
	<path class="st4" d="M50.1,69.6"/>
	<path class="st4" d="M49.9,69.6"/>
	<path class="st5" d="M72.1,69.6c-12.2,0-22.1,12.9-22.1,28.8c0-15.9-9.9-28.8-22.1-28.8"/>
	<path class="st6" d="M61.1,67c-6.1,0-11,6.4-11,14.4c0-7.9-4.9-14.4-11-14.4"/>
</g>
</svg>
