<?xml version="1.0" encoding="utf-8"?>
<!-- Generator: Adobe Illustrator 24.1.1, SVG Export Plug-In . SVG Version: 6.00 Build 0)  -->
<svg version="1.1" id="Layer_1" xmlns="http://www.w3.org/2000/svg" xmlns:xlink="http://www.w3.org/1999/xlink" x="0px" y="0px"
	 viewBox="0 0 100 100" style="enable-background:new 0 0 100 100;" xml:space="preserve">
<style type="text/css">
	.st0{fill:#B8C1EC;stroke:#121629;stroke-width:5;stroke-linejoin:round;stroke-miterlimit:10;}
	.st1{fill:#EEBBC3;stroke:#121629;stroke-width:5;stroke-linejoin:round;stroke-miterlimit:10;}
</style>
<g>
	<path class="st0" d="M86.1,86.5H13.9c-4.1,0-7.4-3.3-7.4-7.4V20.9c0-4.1,3.3-7.4,7.4-7.4h72.1c4.1,0,7.4,3.3,7.4,7.4v58.2
		C93.5,83.2,90.2,86.5,86.1,86.5z"/>
	<path class="st1" d="M37.7,41.2L16.2,78.5H67L45.5,41.2C43.8,38.2,39.4,38.2,37.7,41.2z"/>
	<path class="st1" d="M63.1,57.9L51.2,78.5h31.2L70.5,57.9C68.9,55,64.7,55,63.1,57.9z"/>
	<circle class="st1" cx="63.5" cy="36.5" r="7"/>
</g>
</svg>
