<?xml version="1.0" encoding="utf-8"?>
<!-- Generator: Adobe Illustrator 24.1.1, SVG Export Plug-In . SVG Version: 6.00 Build 0)  -->
<svg version="1.1" id="Layer_1" xmlns="http://www.w3.org/2000/svg" xmlns:xlink="http://www.w3.org/1999/xlink" x="0px" y="0px"
	 viewBox="0 0 100 100" style="enable-background:new 0 0 100 100;" xml:space="preserve">
<style type="text/css">
	.st0{fill:#121629;}
	.st1{fill:#B8C1EC;}
</style>
<path class="st0" d="M92.6,44.7l-2.3-8.6l-3.2-11.8c-1.3-4.8-5.6-8.1-10.6-8.1c-1.8,0-3.5,0.4-5,1.2c-0.5-0.4-1-0.7-1.5-1.1
	l-1.8-1.2h-0.1c-6.2-3.6-13.3-5.6-20.7-5.6c-11.2,0-22,4.7-29.6,12.9C10,30.7,6.2,41.5,7,52.9c1.4,19.6,17.2,35.7,36.8,37.4
	c1.2,0.1,2.4,0.2,3.6,0.2c17.2,0,32.6-11,38.3-27.3c0.6-1.7,0.7-3.5,0.3-5.3c0-0.1,0-0.1-0.1-0.2c1.9-0.7,3.5-1.9,4.8-3.5
	C92.8,51.5,93.5,48.1,92.6,44.7z M82.1,51.5c-0.3,0-0.7,0-1-0.1H81l-14.1-3.8l-1.2-0.3L60.8,46c-0.6-0.2-1.2-0.5-1.6-0.9
	c-0.1,0-0.1-0.1-0.2-0.2c-1.4-1.5-1.6-3.9,0-5.4l2.7-2.7c-0.1-0.1-0.2-0.2-0.3-0.3c-0.7-0.8-1.5-1.4-2.3-2c-0.1-0.1-0.2-0.2-0.3-0.2
	c-0.9-0.6-1.8-1.1-2.8-1.7c-0.1,0-0.2-0.1-0.4-0.2c-2.5-1.1-5.3-1.8-8.1-1.8c-5.1,0-9.8,2.1-13.4,5.4c-3.5,3.3-5.8,7.9-6.1,13
	c-0.7,11.2,8.3,20.5,19.4,20.5c8.3,0,15.4-5.2,18.2-12.6c0.4-1,1.4-1.7,2.4-1.7h0c0.2,0,0.5,0,0.7,0.1l8.5,2.3
	c0.3,0.1,0.6,0.2,0.8,0.4c0.9,0.6,1.3,1.8,1,3c-4.5,13.1-17,22.6-31.7,22.6c-1,0-2,0-3-0.1c-16.2-1.4-29.3-14.7-30.4-31
	c-1.3-19.6,14.2-36,33.5-36c6.8,0,13.3,2.1,18.6,5.6c0,0,0.1,0.1,0.1,0.1c1,0.7,1.8,1.3,2.7,2c0,0,0.1,0.1,0.1,0.1
	c0.9,0.8,1.7,1.4,2.5,2.3c0,0,0.1,0.1,0.1,0.1l2.3-2.3c0.6-0.6,1.2-0.9,1.9-1c0.1,0,0.2,0,0.3,0c0.2,0,0.4,0,0.6,0
	c1.7,0,3.3,1.1,3.8,2.9l4.3,16.1l1.2,4.3C86.6,49.2,84.6,51.5,82.1,51.5z M50.8,43.3C50.8,43.4,50.8,43.4,50.8,43.3
	c0.1,0.6,0.2,1.1,0.3,1.7c1,3.8,4,6.7,7.7,7.7l1,0.3c-0.3,0.5-0.5,1-0.7,1.5c-1.8,4.8-6.5,8-11.7,8c-3.5,0-6.7-1.4-9.1-3.9
	s-3.6-5.8-3.4-9.3c0.4-6.5,6-11.8,12.5-11.8c1.4,0,2.7,0.2,4,0.7c0,0,0.1,0,0.1,0C50.9,39.8,50.6,41.6,50.8,43.3z"/>
<path class="st1" d="M82.1,51.5c-0.3,0-0.7,0-1-0.1H81l-14.1-3.8l-1.2-0.3L60.8,46c-0.6-0.2-1.2-0.5-1.6-0.9
	C59.1,45,59.1,45,59,44.9c-1.4-1.5-1.6-3.9,0-5.4l2.7-2.7c-0.1-0.1-0.2-0.2-0.3-0.3c-0.7-0.8-1.5-1.4-2.3-2
	c-0.1-0.1-0.2-0.2-0.3-0.2c-0.9-0.6-1.8-1.1-2.8-1.7c-0.1,0-0.2-0.1-0.4-0.2c-2.5-1.1-5.3-1.8-8.1-1.8c-5.1,0-9.8,2.1-13.4,5.4
	c-3.5,3.3-5.8,7.9-6.1,13c-0.7,11.2,8.3,20.5,19.4,20.5c8.3,0,15.4-5.2,18.2-12.6c0.4-1,1.4-1.7,2.4-1.7h0c0.2,0,0.5,0,0.7,0.1
	l8.5,2.3c0.3,0.1,0.6,0.2,0.8,0.4c0.9,0.6,1.3,1.8,1,3c-4.5,13.1-17,22.6-31.7,22.6c-1,0-2,0-3-0.1c-16.2-1.4-29.3-14.7-30.4-31
	c-1.3-19.6,14.2-36,33.5-36c6.8,0,13.3,2.1,18.6,5.6c0,0,0.1,0.1,0.1,0.1c1,0.7,1.8,1.3,2.7,2c0,0,0.1,0.1,0.1,0.1
	c0.9,0.8,1.7,1.4,2.5,2.3c0,0,0.1,0.1,0.1,0.1l2.3-2.3c0.6-0.6,1.2-0.9,1.9-1c0.1,0,0.2,0,0.3,0c0.2,0,0.4,0,0.6,0
	c1.7,0,3.3,1.1,3.8,2.9l4.3,16.1l1.2,4.3C86.6,49.2,84.6,51.5,82.1,51.5z"/>
</svg>
